<?xml version="1.0" encoding="UTF-8"?>
<svg id="Layer_2" data-name="Layer 2" xmlns="http://www.w3.org/2000/svg" viewBox="0 0 120.55 120.55">
  <defs>
    <style>
      .cls-1 {
        fill: #0276b1;
      }
    </style>
  </defs>
  <g id="Layer_1-2" data-name="Layer 1">
    <g>
      <path class="cls-1" d="M78.06,84.38v36.16H30.48c-13.52-1.68-20.29-8.99-20.29-21.96v-21.88c0-7.32-3.1-10.98-9.29-10.98h-.89v-10.89h.89c6.2,0,9.29-3.66,9.29-10.99v-21.87C10.19,9.08,16.95,1.75,30.48,0h6.9v84.38h40.69Z"/>
      <path class="cls-1" d="M42.49,36.17V0h47.59c13.52,1.68,20.29,8.99,20.29,21.96v21.88c0,7.32,3.1,10.98,9.29,10.98h.89v10.89h-.89c-6.2,0-9.29,3.66-9.29,10.99v21.87c0,12.9-6.77,20.23-20.29,21.98h-6.9V36.17s-40.69,0-40.69,0Z"/>
      <rect class="cls-1" x="42.49" y="42.2" width="35.57" height="36.16"/>
    </g>
  </g>
</svg>