<?xml version="1.0" encoding="UTF-8"?>
<svg id="Layer_2" data-name="Layer 2" xmlns="http://www.w3.org/2000/svg" viewBox="0 0 363.04 120.55">
  <defs>
    <style>
      .cls-1 {
        font-family: Erbaum-Light, Erbaum;
        font-size: 25.78px;
        font-weight: 300;
      }

      .cls-2 {
        font-family: Erbaum-Bold, Erbaum;
        font-size: 44.19px;
        font-weight: 700;
      }

      .cls-3 {
        fill: #0276b1;
      }

      .cls-4 {
        letter-spacing: 0em;
      }

      .cls-5 {
        letter-spacing: 0em;
      }

      .cls-6 {
        letter-spacing: .02em;
      }

      .cls-7 {
        letter-spacing: 0em;
      }
    </style>
  </defs>
  <g id="Layer_1-2" data-name="Layer 1">
    <g>
      <path class="cls-3" d="M78.06,84.38v36.16H30.48c-13.52-1.68-20.29-8.99-20.29-21.96v-21.88c0-7.32-3.1-10.98-9.29-10.98h-.89v-10.89h.89c6.2,0,9.29-3.66,9.29-10.99v-21.87C10.19,9.08,16.95,1.75,30.48,0h6.9v84.38h40.69Z"/>
      <path class="cls-3" d="M42.49,36.17V0h47.59c13.52,1.68,20.29,8.99,20.29,21.96v21.88c0,7.32,3.1,10.98,9.29,10.98h.89v10.89h-.89c-6.2,0-9.29,3.66-9.29,10.99v21.87c0,12.9-6.77,20.23-20.29,21.98h-6.9V36.17s-40.69,0-40.69,0Z"/>
      <rect class="cls-3" x="42.49" y="42.2" width="35.57" height="36.16"/>
    </g>
    <text class="cls-2" transform="translate(135.67 67.38)"><tspan x="0" y="0">LEXDR</tspan><tspan class="cls-6" x="156.86" y="0">E</tspan><tspan class="cls-5" x="186.02" y="0">L</tspan></text>
    <text class="cls-1" transform="translate(136.2 101.21)"><tspan x="0" y="0">C</tspan><tspan class="cls-7" x="19.77" y="0">l</tspan><tspan class="cls-4" x="29.67" y="0">oud Services</tspan></text>
  </g>
</svg>