<?xml version="1.0" encoding="UTF-8"?>
<svg id="Layer_2" data-name="Layer 2" xmlns="http://www.w3.org/2000/svg" viewBox="0 0 495.76 98.22">
  <defs>
    <style>
      .cls-1 {
        fill: #0276b1;
      }

      .cls-2 {
        fill: #2c363c;
      }
    </style>
  </defs>
  <g id="Layer_1-2" data-name="Layer 1">
    <g>
      <path class="cls-1" d="M63.6,68.75v29.46H24.83c-11.02-1.37-16.53-7.33-16.53-17.89v-17.83c0-5.96-2.52-8.95-7.57-8.95h-.73v-8.87h.73c5.05,0,7.57-2.99,7.57-8.96v-17.82C8.3,7.4,13.81,1.42,24.83,0h5.62v68.75h33.15Z"/>
      <path class="cls-1" d="M34.62,29.47V0h38.77c11.02,1.37,16.53,7.33,16.53,17.89v17.83c0,5.96,2.52,8.95,7.57,8.95h.73v8.87h-.73c-5.05,0-7.57,2.99-7.57,8.96v17.82c0,10.51-5.51,16.48-16.53,17.9h-5.62V29.47s-33.15,0-33.15,0Z"/>
      <rect class="cls-1" x="34.62" y="34.38" width="28.98" height="29.46"/>
    </g>
    <g>
      <path class="cls-2" d="M112.99,20.11h14.64v45.56h25.62v12.44h-40.27V20.11Z"/>
      <path class="cls-2" d="M178.07,32.55v9.68h23.1v12.44h-23.1v10.98h26.52v12.44h-41.16V20.11h41.16v12.45h-26.52Z"/>
      <path class="cls-2" d="M230.38,48.74l-17.81-28.63h17.24l10.66,17.24,10.65-17.24h17.25l-17.82,28.63,18.79,29.37h-17.24l-11.63-18.3-11.63,18.3h-17.16l18.71-29.37Z"/>
      <path class="cls-2" d="M325.73,34.51v29.2c0,9.52-4.96,14.4-14.81,14.4h-31.48V20.11h31.48c9.84,0,14.81,4.88,14.81,14.4ZM306.53,32.55h-12.45v33.11h12.45c3.42,0,4.56-1.14,4.56-4.31v-24.49c0-3.25-1.14-4.31-4.56-4.31Z"/>
      <path class="cls-2" d="M339.08,20.11h31.48c9.84,0,14.81,4.88,14.81,14.4v8.7c0,7.16-2.77,11.63-8.38,13.42l14.64,21.48h-17.08l-14.15-20.58h-6.67v20.58h-14.64V20.11ZM366.16,45.08c3.42,0,4.56-1.06,4.56-4.23v-3.99c0-3.25-1.14-4.31-4.56-4.31h-12.45v12.53h12.45Z"/>
      <path class="cls-2" d="M416.44,32.55v9.68h23.1v12.44h-23.1v10.98h26.52v12.44h-41.16V20.11h41.16v12.45h-26.52Z"/>
      <path class="cls-2" d="M455.5,20.11h14.64v45.56h25.62v12.44h-40.27V20.11Z"/>
    </g>
  </g>
</svg>