<svg width="80" height="80" viewBox="0 0 24 24" fill="none" xmlns="http://www.w3.org/2000/svg" transform="rotate(0 0 0)">
<path opacity="0.4" d="M12 2C12.4142 2 12.75 2.33579 12.75 2.75V4.5H18.25C19.4926 4.5 20.5 5.50736 20.5 6.75V9.25H20.75C21.4404 9.25 22 9.80964 22 10.5V13.5C22 14.1904 21.4404 14.75 20.75 14.75H20.5V17.25C20.5 18.4926 19.4926 19.5 18.25 19.5H5.75C4.50736 19.5 3.5 18.4926 3.5 17.25V14.75H3.25C2.55964 14.75 2 14.1904 2 13.5V10.5C2 9.80964 2.55964 9.25 3.25 9.25H3.5V6.75C3.5 5.50736 4.50736 4.5 5.75 4.5H11.25V2.75C11.25 2.33579 11.5858 2 12 2ZM5 17.25C5 17.6642 5.33579 18 5.75 18H18.25C18.6642 18 19 17.6642 19 17.25V6.75C19 6.33579 18.6642 6 18.25 6H5.75C5.33579 6 5 6.33579 5 6.75V17.25Z" fill="#000000"></path>
<path d="M10.7544 9.875C10.7544 9.18464 10.1948 8.625 9.50439 8.625C8.81404 8.625 8.25439 9.18464 8.25439 9.875C8.25439 10.5654 8.81404 11.1251 9.50439 11.1251C10.1948 11.1251 10.7544 10.5654 10.7544 9.875Z" fill="#000000"></path>
<path d="M15.7454 9.875C15.7454 9.18464 15.1857 8.625 14.4954 8.625C13.805 8.625 13.2454 9.18464 13.2454 9.875C13.2454 10.5654 13.805 11.1251 14.4954 11.1251C15.1857 11.1251 15.7454 10.5654 15.7454 9.875Z" fill="#000000"></path>
<path d="M8.95534 13.0862C9.27939 12.8282 9.75124 12.8818 10.0092 13.2058C10.4763 13.7925 11.1942 14.1664 11.9999 14.1664C12.8056 14.1664 13.5235 13.7925 13.9906 13.2058C14.2486 12.8818 14.7204 12.8282 15.0445 13.0862C15.3685 13.3442 15.4221 13.8161 15.1641 14.1401C14.4247 15.0689 13.2818 15.6664 11.9999 15.6664C10.718 15.6664 9.57517 15.0689 8.83574 14.1401C8.57774 13.8161 8.63129 13.3442 8.95534 13.0862Z" fill="#000000"></path>
</svg>